<?xml version="1.0" standalone="no"?>
<!DOCTYPE svg PUBLIC "-//W3C//DTD SVG 20010904//EN"
 "http://www.w3.org/TR/2001/REC-SVG-20010904/DTD/svg10.dtd">
<svg version="1.0" xmlns="http://www.w3.org/2000/svg"
 width="700.000000pt" height="700.000000pt" viewBox="0 0 700.000000 700.000000"
 preserveAspectRatio="xMidYMid meet">
<metadata>
Created by potrace 1.11, written by Peter Selinger 2001-2013
</metadata>
<g transform="translate(0.000000,700.000000) scale(0.100000,-0.100000)"
fill="#000000" stroke="none">
<path d="M1420 6925 c-54 -17 -116 -75 -141 -130 -10 -22 -40 -183 -68 -365
-86 -548 -98 -620 -102 -624 -5 -5 -128 -28 -602 -111 -188 -34 -322 -62 -345
-74 -78 -40 -131 -128 -132 -216 0 -59 34 -137 76 -177 16 -14 148 -83 294
-153 578 -276 561 -267 556 -284 -3 -9 -37 -226 -77 -482 -79 -510 -79 -523
-29 -602 36 -57 90 -94 161 -109 45 -9 64 -8 114 6 59 18 63 21 423 386 l362
368 378 -180 c540 -257 542 -258 598 -258 78 0 121 17 174 68 57 56 86 135 76
207 -7 41 -92 203 -379 720 l-106 190 92 95 c51 52 193 197 317 322 135 136
235 246 249 273 74 141 -18 320 -182 349 -28 5 -165 -15 -499 -74 -253 -45
-461 -80 -463 -78 -1 2 -67 120 -145 263 -352 638 -339 619 -414 657 -50 26
-129 32 -186 13z"/>
<path d="M5440 6931 c-44 -14 -84 -39 -112 -68 -27 -28 -72 -107 -348 -608
-78 -143 -144 -261 -145 -263 -2 -2 -210 33 -463 78 -334 59 -471 79 -499 74
-79 -14 -151 -69 -188 -143 -27 -54 -24 -149 6 -204 14 -27 150 -174 339 -367
173 -176 314 -324 313 -328 -1 -4 -97 -180 -213 -391 -283 -514 -264 -474
-264 -551 0 -140 104 -240 249 -240 55 0 56 1 597 258 l378 180 362 -368 c360
-366 363 -368 423 -386 50 -14 69 -15 114 -6 71 15 125 52 161 109 50 78 49
91 -30 601 -39 257 -72 475 -73 485 -2 14 38 37 183 106 466 221 617 295 647
317 77 58 112 180 78 270 -22 58 -67 109 -116 135 -24 12 -156 40 -346 74
-474 83 -597 106 -602 111 -4 4 -13 60 -101 619 -29 183 -59 348 -69 370 -21
47 -70 98 -118 120 -40 19 -127 28 -163 16z"/>
<path d="M1571 3102 c-95 -35 -153 -96 -187 -198 -30 -93 -26 -305 8 -445 143
-574 648 -1097 1293 -1340 664 -249 1401 -181 2014 186 323 193 631 517 785
822 91 182 142 362 153 533 13 228 -47 372 -180 431 -71 32 -173 31 -347 -4
-628 -124 -1001 -162 -1610 -162 -446 0 -585 8 -925 50 -189 24 -514 77 -709
116 -153 31 -231 33 -295 11z m294 -411 c721 -179 1963 -214 2850 -80 172 26
421 77 519 106 35 10 -63 -118 -178 -233 -324 -323 -804 -507 -1388 -533 -608
-27 -1110 89 -1495 345 -159 105 -326 269 -407 397 -17 28 -17 29 1 23 10 -3
54 -14 98 -25z"/>
</g>
</svg>
