<?xml version="1.0" encoding="UTF-8"?>
<svg width="36px" height="36px" viewBox="0 0 36 36" version="1.1" xmlns="http://www.w3.org/2000/svg" xmlns:xlink="http://www.w3.org/1999/xlink">
    <title>star-eyes</title>
    <g id="Page-1" stroke="none" stroke-width="1" fill="none" fill-rule="evenodd">
        <g id="star-eyes" fill-rule="nonzero">
            <path d="M36,18 C36,27.941 27.941,36 18,36 C8.059,36 0,27.941 0,18 C0,8.059 8.059,0 18,0 C27.941,0 36,8.059 36,18" id="Path" fill="#FDD835"></path>
            <path d="M18,21 C14.377,21 11.973,20.578 9,20 C8.321,19.869 7,20 7,22 C7,26 11.595,31 18,31 C24.404,31 29,26 29,22 C29,20 27.679,19.868 27,20 C24.027,20.578 21.623,21 18,21 Z" id="Path" fill="#616161"></path>
            <path d="M9,22 C9,22 12,23 18,23 C24,23 27,22 27,22 C27,22 25,26 18,26 C11,26 9,22 9,22 Z" id="Path" fill="#FFFFFF"></path>
            <path d="M15.682,4.413 L11.14,5.214 L8.8,0.961 C8.542,0.492 8.012,0.241 7.488,0.333 C6.961,0.426 6.551,0.844 6.469,1.372 L5.724,6.169 L1.182,6.97 C0.647,7.064 0.234,7.495 0.161,8.034 C0.088,8.573 0.372,9.097 0.864,9.331 L4.934,11.263 L4.186,16.075 C4.103,16.611 4.375,17.139 4.859,17.384 C5.038,17.474 5.23,17.517 5.421,17.517 C5.748,17.517 6.071,17.389 6.312,17.145 L9.824,13.584 L14.342,15.729 C14.832,15.961 15.416,15.852 15.788,15.457 C16.16,15.062 16.234,14.473 15.973,13.998 L13.625,9.73 L16.79,6.522 C17.172,6.135 17.259,5.545 17.007,5.063 C16.753,4.581 16.214,4.32 15.682,4.413 Z M20.318,4.413 L24.86,5.214 L27.2,0.961 C27.458,0.492 27.988,0.241 28.512,0.333 C29.038,0.426 29.448,0.844 29.53,1.372 L30.275,6.169 L34.817,6.97 C35.353,7.064 35.766,7.494 35.838,8.033 C35.91,8.572 35.627,9.096 35.135,9.33 L31.065,11.262 L31.813,16.074 C31.896,16.61 31.624,17.138 31.14,17.383 C30.961,17.473 30.769,17.516 30.578,17.516 C30.251,17.516 29.928,17.388 29.687,17.144 L26.175,13.583 L21.657,15.728 C21.167,15.96 20.583,15.851 20.211,15.456 C19.839,15.061 19.765,14.472 20.026,13.997 L22.374,9.73 L19.209,6.522 C18.827,6.135 18.74,5.545 18.992,5.063 C19.247,4.581 19.786,4.32 20.318,4.413 Z" id="Shape" fill="#00796B"></path>
        </g>
    </g>
</svg>